<?xml version="1.0" encoding="utf-8"?>
<svg version="1.1" width="200" height="200" viewBox="-100 -100 200 200" xmlns="http://www.w3.org/2000/svg">
  <circle cx="-60" cy="60" r="7.5" fill="black" stroke="none" />
  <circle cx="-60" cy="30" r="7.5" fill="black" stroke="none" />
  <circle cx="-60" cy="0" r="7.5" fill="black" stroke="none" />
  <circle cx="-60" cy="-30" r="7.5" fill="black" stroke="none" />
  <circle cx="-60" cy="-60" r="7.5" fill="black" stroke="none" />
  <circle cx="-30" cy="60" r="7.5" fill="black" stroke="none" />
  <circle cx="-30" cy="30" r="7.5" fill="black" stroke="none" />
  <circle cx="-30" cy="0" r="7.5" fill="black" stroke="none" />
  <circle cx="-30" cy="-30" r="7.5" fill="black" stroke="none" />
  <circle cx="-30" cy="-60" r="7.5" fill="black" stroke="none" />
  <circle cx="0" cy="60" r="7.5" fill="black" stroke="none" />
  <circle cx="0" cy="30" r="7.5" fill="black" stroke="none" />
  <circle cx="0" cy="0" r="7.5" fill="black" stroke="none" />
  <circle cx="0" cy="-30" r="7.5" fill="black" stroke="none" />
  <circle cx="0" cy="-60" r="7.5" fill="black" stroke="none" />
  <circle cx="30" cy="60" r="7.5" fill="black" stroke="none" />
  <circle cx="30" cy="30" r="7.5" fill="black" stroke="none" />
  <circle cx="30" cy="0" r="7.5" fill="black" stroke="none" />
  <circle cx="30" cy="-30" r="7.5" fill="black" stroke="none" />
  <circle cx="30" cy="-60" r="7.5" fill="black" stroke="none" />
  <circle cx="60" cy="60" r="7.5" fill="black" stroke="none" />
  <circle cx="60" cy="30" r="7.5" fill="black" stroke="none" />
  <circle cx="60" cy="0" r="7.5" fill="black" stroke="none" />
  <circle cx="60" cy="-30" r="7.5" fill="black" stroke="none" />
  <circle cx="60" cy="-60" r="7.5" fill="black" stroke="none" />
</svg>