<?xml version="1.0" encoding="utf-8"?>
<svg version="1.1" width="200" height="200" viewBox="-100 -100 200 200" xmlns="http://www.w3.org/2000/svg">
  <path d="M -39,10 C -39,5 -39,5 -39,-0 -39,-20 -13,-20 -13,-0 -13,20 13,20 13,-0 13,-20 39,-20 39,-0 39,5 39,5 39,10" fill="none" stroke="black" stroke-width="10" stroke-linecap="round" stroke-linejoin="miter" />
  <path d="M 0,-48.21 C 40.71,-48.21 75,-26.79 75,-0 75,26.79 40.71,48.21 0,48.21 -40.71,48.21 -75,26.79 -75,-0 -75,-26.79 -40.71,-48.21 0,-48.21" fill="none" stroke="black" stroke-width="12.5" stroke-linecap="round" stroke-linejoin="miter" />
</svg>