<?xml version="1.0" encoding="utf-8"?>
<svg version="1.1" width="200" height="200" viewBox="-100 -100 200 200" xmlns="http://www.w3.org/2000/svg">
  <polygon points="-70,70 -70,-70 70,-70 70,70 " fill="none" stroke="black" stroke-width="12.5" stroke-linejoin="round" />
  <path d="M 0,37 C -7.660444,43.42788 -19.01736,53.69468 -31.15262,44.8779 -43.28787,36.06112 -37.03304,22.08743 -33.28698,12.81559 -41.76746,7.516402 -55.04125,-0.1120522 -50.40599,-14.3779 -45.77074,-28.64375 -30.54812,-27.01316 -20.57248,-26.3156 -18.15326,-36.01855 -15,-51 9.301504E-07,-51 15,-51 18.15326,-36.01855 20.57248,-26.3156 30.54812,-27.01316 45.77074,-28.64375 50.40599,-14.3779 55.04125,-0.1120543 41.76746,7.516402 33.28698,12.81559 37.03304,22.08743 43.28787,36.06112 31.15262,44.8779 19.01736,53.69468 7.660444,43.42788 0,37" fill="none" stroke="black" stroke-width="10" stroke-linecap="round" stroke-linejoin="miter" />
  <circle cx="0" cy="2" r="12.5" fill="black" stroke="none" />
</svg>